<svg xmlns="http://www.w3.org/2000/svg" xmlns:xlink="http://www.w3.org/1999/xlink" width="593" height="1028" shape-rendering="optimizeSpeed">
    <g>
        <rect x="50" y="80" width="128" height="30" style="fill:#80cbc4; stroke:#444; stroke-width:1"></rect>
        <line x1="60" y1="80" x2="60" y2="110" style="fill:#80cbc4; stroke:#444; stroke-width:1"></line>
        <line x1="168" y1="80" x2="168" y2="110" style="fill:#80cbc4; stroke:#444; stroke-width:1"></line>
        <title>class App </title>
        <text x="75" y="100" font-family="monospace" font-size="13" fill="#222">
            <tspan x="75" y="100">class App </tspan>
        </text>
    </g>
    <g>
        <rect x="87" y="128.5" width="182.6" height="30" style="fill:#a5d6a7; stroke:#444; stroke-width:1"></rect>
        <line x1="97" y1="128.5" x2="97" y2="158.5" style="fill:#a5d6a7; stroke:#444; stroke-width:1"></line>
        <line x1="259.6" y1="128.5" x2="259.6" y2="158.5" style="fill:#a5d6a7; stroke:#444; stroke-width:1"></line>
        <title>constructor(root)</title>
        <text x="112" y="148.5" font-family="monospace" font-size="13" fill="#222">
            <tspan x="112" y="148.5">constructor(root)</tspan>
        </text>
    </g>
    <g>
        <rect x="124" y="177" width="147" height="30" rx="3" ry="3" style="fill:#90caf9; stroke:#444; stroke-width:1"></rect>
        <title>this.notes = []</title>
        <text x="139" y="197" font-family="monospace" font-size="13" fill="#222">
            <tspan x="139" y="197">this.notes = []</tspan>
        </text>
    </g>
    <g>
        <rect x="124" y="225.5" width="201.6" height="30" rx="3" ry="3" style="fill:#90caf9; stroke:#444; stroke-width:1"></rect>
        <title>this.activeNote = null</title>
        <text x="139" y="245.5" font-family="monospace" font-size="13" fill="#222">
            <tspan x="139" y="245.5">this.activeNote = null</tspan>
        </text>
    </g>
    <g>
        <rect x="124" y="274" width="381" height="30" rx="3" ry="3" style="fill:#90caf9; stroke:#444; stroke-width:1"></rect>
        <title>this.view = NotesView(root, this._handlers())</title>
        <text x="139" y="294" font-family="monospace" font-size="13" fill="#222">
            <tspan x="139" y="294">this.view = NotesView(root, this._handlers())</tspan>
        </text>
    </g>
    <g>
        <rect x="124" y="322.5" width="186" height="30" rx="2" ry="2" style="fill:#C5E1A5; stroke:#444; stroke-width:1"></rect>
        <title>this._refreshNotes()</title>
        <text x="139" y="342.5" font-family="monospace" font-size="13" fill="#222">
            <tspan x="139" y="342.5">this._refreshNotes()</tspan>
        </text>
    </g>
    <g>
        <rect x="87" y="386" width="167" height="30" style="fill:#a5d6a7; stroke:#444; stroke-width:1"></rect>
        <line x1="97" y1="386" x2="97" y2="416" style="fill:#a5d6a7; stroke:#444; stroke-width:1"></line>
        <line x1="244" y1="386" x2="244" y2="416" style="fill:#a5d6a7; stroke:#444; stroke-width:1"></line>
        <title>_refreshNotes()</title>
        <text x="112" y="406" font-family="monospace" font-size="13" fill="#222">
            <tspan x="112" y="406">_refreshNotes()</tspan>
        </text>
    </g>
    <g>
        <rect x="124" y="434.5" width="310.8" height="30" rx="3" ry="3" style="fill:#90caf9; stroke:#444; stroke-width:1"></rect>
        <title>const notes = NotesAPI.getAllNotes()</title>
        <text x="139" y="454.5" font-family="monospace" font-size="13" fill="#222">
            <tspan x="139" y="454.5">const notes = NotesAPI.getAllNotes()</tspan>
        </text>
    </g>
    <g>
        <rect x="124" y="483" width="186" height="30" rx="2" ry="2" style="fill:#C5E1A5; stroke:#444; stroke-width:1"></rect>
        <title>this._setNote(notes)</title>
        <text x="139" y="503" font-family="monospace" font-size="13" fill="#222">
            <tspan x="139" y="503">this._setNote(notes)</tspan>
        </text>
    </g>
    <g>
        <rect x="154" y="546.5" width="200.4" height="30" rx="3" ry="3" style="fill:#ce93d8; stroke:#444; stroke-width:1"></rect>
        <polygon points="124,561.5 154,531.5 184,561.5 154,591.5" style="fill:#ce93d8; stroke:#444; stroke-width:1"></polygon>
        <title>(notes.length &gt; 0)</title>
        <text x="199" y="566.5" font-family="monospace" font-size="13" fill="#222">
            <tspan x="199" y="566.5">(notes.length &gt; 0)</tspan>
        </text>
        <text x="146.2" y="566.5" font-family="monospace" font-size="13" fill="#222">if</text>
        <text x="161.8" y="593.45" font-family="monospace" font-size="13" fill="#222">+</text>
    </g>
    <g>
        <rect x="174" y="601.5" width="256.2" height="30" rx="2" ry="2" style="fill:#C5E1A5; stroke:#444; stroke-width:1"></rect>
        <title>this._setActiveNote(notes[0])</title>
        <text x="189" y="621.5" font-family="monospace" font-size="13" fill="#222">
            <tspan x="189" y="621.5">this._setActiveNote(notes[0])</tspan>
        </text>
    </g>
    <g>
        <rect x="87" y="666.5" width="167" height="30" style="fill:#a5d6a7; stroke:#444; stroke-width:1"></rect>
        <line x1="97" y1="666.5" x2="97" y2="696.5" style="fill:#a5d6a7; stroke:#444; stroke-width:1"></line>
        <line x1="244" y1="666.5" x2="244" y2="696.5" style="fill:#a5d6a7; stroke:#444; stroke-width:1"></line>
        <title>_setNote(notes)</title>
        <text x="112" y="686.5" font-family="monospace" font-size="13" fill="#222">
            <tspan x="112" y="686.5">_setNote(notes)</tspan>
        </text>
    </g>
    <g>
        <rect x="124" y="715" width="170.4" height="30" rx="3" ry="3" style="fill:#90caf9; stroke:#444; stroke-width:1"></rect>
        <title>this.notes = notes</title>
        <text x="139" y="735" font-family="monospace" font-size="13" fill="#222">
            <tspan x="139" y="735">this.notes = notes</tspan>
        </text>
    </g>
    <g>
        <rect x="124" y="763.5" width="271.79999999999995" height="30" rx="2" ry="2" style="fill:#C5E1A5; stroke:#444; stroke-width:1"></rect>
        <title>this.view.updateNoteList(notes)</title>
        <text x="139" y="783.5" font-family="monospace" font-size="13" fill="#222">
            <tspan x="139" y="783.5">this.view.updateNoteList(notes)</tspan>
        </text>
    </g>
    <g>
        <rect x="124" y="812" width="443.4" height="30" rx="2" ry="2" style="fill:#C5E1A5; stroke:#444; stroke-width:1"></rect>
        <title>this.view.updateNotePreviewVisibility(notes.length &gt; 0)</title>
        <text x="139" y="832" font-family="monospace" font-size="13" fill="#222">
            <tspan x="139" y="832">this.view.updateNotePreviewVisibility(notes.length...</tspan>
        </text>
    </g>
    <g>
        <rect x="87" y="875.5" width="206" height="30" style="fill:#a5d6a7; stroke:#444; stroke-width:1"></rect>
        <line x1="97" y1="875.5" x2="97" y2="905.5" style="fill:#a5d6a7; stroke:#444; stroke-width:1"></line>
        <line x1="283" y1="875.5" x2="283" y2="905.5" style="fill:#a5d6a7; stroke:#444; stroke-width:1"></line>
        <title>_setActiveNote(note)</title>
        <text x="112" y="895.5" font-family="monospace" font-size="13" fill="#222">
            <tspan x="112" y="895.5">_setActiveNote(note)</tspan>
        </text>
    </g>
    <g>
        <rect x="124" y="924" width="201.6" height="30" rx="3" ry="3" style="fill:#90caf9; stroke:#444; stroke-width:1"></rect>
        <title>this.activeNote = note</title>
        <text x="139" y="944" font-family="monospace" font-size="13" fill="#222">
            <tspan x="139" y="944">this.activeNote = note</tspan>
        </text>
    </g>
    <g>
        <rect x="124" y="972.5" width="279.6" height="30" rx="2" ry="2" style="fill:#C5E1A5; stroke:#444; stroke-width:1"></rect>
        <title>this.view.updateActiveNote(note)</title>
        <text x="139" y="992.5" font-family="monospace" font-size="13" fill="#222">
            <tspan x="139" y="992.5">this.view.updateActiveNote(note)</tspan>
        </text>
    </g>
    <g>
        <rect x="25" y="13.75" width="216.6" height="24" style="fill:#fff59d; stroke:#444; stroke-width:1"></rect>
        <circle cx="25" cy="25" r="15" style="fill:#fff59d; stroke:#444; stroke-width:1"></circle>
        <title>Program: source module</title>
        <text x="55" y="30" font-family="monospace" font-size="13" fill="#222">
            <tspan x="55" y="30">Program: source module</tspan>
        </text>
    </g>
    <g>
        <path d="M25, 40 L25 91 Q25 95
                29 95
                L42 95 " style="fill:none; stroke:#444; stroke-width:1"></path>
        <path d="M42, 92 L50, 95 L42, 98 Z" fill="#333"></path>
    </g>
    <g>
        <path d="M68.5, 110 L68.5 139.5 Q68.5 143.5
                72.5 143.5
                L79 143.5 " style="fill:none; stroke:#444; stroke-width:1"></path>
        <path d="M79, 140.5 L87, 143.5 L79, 146.5 Z" fill="#333"></path>
    </g>
    <g>
        <path d="M105.5, 158.5 L105.5 188 Q105.5 192
                109.5 192
                L116 192 " style="fill:none; stroke:#444; stroke-width:1"></path>
        <path d="M116, 189 L124, 192 L116, 195 Z" fill="#333"></path>
    </g>
    <g>
        <path d="M105.5, 158.5 L105.5 236.5 Q105.5 240.5
                109.5 240.5
                L116 240.5 " style="fill:none; stroke:#444; stroke-width:1"></path>
        <path d="M116, 237.5 L124, 240.5 L116, 243.5 Z" fill="#333"></path>
    </g>
    <g>
        <path d="M105.5, 158.5 L105.5 285 Q105.5 289
                109.5 289
                L116 289 " style="fill:none; stroke:#444; stroke-width:1"></path>
        <path d="M116, 286 L124, 289 L116, 292 Z" fill="#333"></path>
    </g>
    <g>
        <path d="M105.5, 158.5 L105.5 333.5 Q105.5 337.5
                109.5 337.5
                L116 337.5 " style="fill:none; stroke:#444; stroke-width:1"></path>
        <path d="M116, 334.5 L124, 337.5 L116, 340.5 Z" fill="#333"></path>
    </g>
    <g>
        <path d="M68.5, 110 L68.5 397 Q68.5 401
                72.5 401
                L79 401 " style="fill:none; stroke:#444; stroke-width:1"></path>
        <path d="M79, 398 L87, 401 L79, 404 Z" fill="#333"></path>
    </g>
    <g>
        <path d="M105.5, 416 L105.5 445.5 Q105.5 449.5
                109.5 449.5
                L116 449.5 " style="fill:none; stroke:#444; stroke-width:1"></path>
        <path d="M116, 446.5 L124, 449.5 L116, 452.5 Z" fill="#333"></path>
    </g>
    <g>
        <path d="M105.5, 416 L105.5 494 Q105.5 498
                109.5 498
                L116 498 " style="fill:none; stroke:#444; stroke-width:1"></path>
        <path d="M116, 495 L124, 498 L116, 501 Z" fill="#333"></path>
    </g>
    <g>
        <path d="M105.5, 416 L105.5 557.5 Q105.5 561.5
                109.5 561.5
                L116 561.5 " style="fill:none; stroke:#444; stroke-width:1"></path>
        <path d="M116, 558.5 L124, 561.5 L116, 564.5 Z" fill="#333"></path>
    </g>
    <g>
        <path d="M154, 591.5 L154 612.5 Q154 616.5
                158 616.5
                L166 616.5 " style="fill:none; stroke:#444; stroke-width:1"></path>
        <path d="M166, 613.5 L174, 616.5 L166, 619.5 Z" fill="#333"></path>
    </g>
    <g>
        <path d="M68.5, 110 L68.5 677.5 Q68.5 681.5
                72.5 681.5
                L79 681.5 " style="fill:none; stroke:#444; stroke-width:1"></path>
        <path d="M79, 678.5 L87, 681.5 L79, 684.5 Z" fill="#333"></path>
    </g>
    <g>
        <path d="M105.5, 696.5 L105.5 726 Q105.5 730
                109.5 730
                L116 730 " style="fill:none; stroke:#444; stroke-width:1"></path>
        <path d="M116, 727 L124, 730 L116, 733 Z" fill="#333"></path>
    </g>
    <g>
        <path d="M105.5, 696.5 L105.5 774.5 Q105.5 778.5
                109.5 778.5
                L116 778.5 " style="fill:none; stroke:#444; stroke-width:1"></path>
        <path d="M116, 775.5 L124, 778.5 L116, 781.5 Z" fill="#333"></path>
    </g>
    <g>
        <path d="M105.5, 696.5 L105.5 823 Q105.5 827
                109.5 827
                L116 827 " style="fill:none; stroke:#444; stroke-width:1"></path>
        <path d="M116, 824 L124, 827 L116, 830 Z" fill="#333"></path>
    </g>
    <g>
        <path d="M68.5, 110 L68.5 886.5 Q68.5 890.5
                72.5 890.5
                L79 890.5 " style="fill:none; stroke:#444; stroke-width:1"></path>
        <path d="M79, 887.5 L87, 890.5 L79, 893.5 Z" fill="#333"></path>
    </g>
    <g>
        <path d="M105.5, 905.5 L105.5 935 Q105.5 939
                109.5 939
                L116 939 " style="fill:none; stroke:#444; stroke-width:1"></path>
        <path d="M116, 936 L124, 939 L116, 942 Z" fill="#333"></path>
    </g>
    <g>
        <path d="M105.5, 905.5 L105.5 983.5 Q105.5 987.5
                109.5 987.5
                L116 987.5 " style="fill:none; stroke:#444; stroke-width:1"></path>
        <path d="M116, 984.5 L124, 987.5 L116, 990.5 Z" fill="#333"></path>
    </g>
</svg>