<svg version="1.2" xmlns="http://www.w3.org/2000/svg" viewBox="0 0 1146 2914" width="1146" height="2914">
	<title>notesView_function-svg</title>
	<style>
		tspan { white-space:pre } 
		.s0 { fill: #80cbc4;stroke: #444444 } 
		.t1 { font-size: 13px;fill: #222222;font-family: "monospace" } 
		.s2 { fill: #a5d6a7;stroke: #444444 } 
		.s3 { fill: #90caf9;stroke: #444444 } 
		.s4 { fill: #ce93d8;stroke: #444444 } 
		.s5 { fill: #c5e1a5;stroke: #444444 } 
		.s6 { fill: #b39ddb;stroke: #444444 } 
		.s7 { fill: #ede7f6;stroke: #444444 } 
		.s8 { fill: none;stroke: #444444 } 
		.s9 { fill: #333333 } 
	</style>
	<rect width="1146" height="2914" id="顏色填充 1" style="fill: #f2f2f2"/>
	<g id="Layer">
		<path id="Layer" class="s0" d="m50 17h174.8v30h-174.8z"/>
		<path id="Layer" class="s0" d="m60 17v30"/>
		<path id="Layer" class="s0" d="m214.8 17v30"/>
		<text id="class NotesView " style="transform: matrix(1,0,0,1,75,37)" >
			<tspan x="0" y="0" class="t1">class NotesView 
</tspan>
		</text>
	</g>
	<g id="Layer">
		<path id="Layer" class="s2" d="m87 65.5h463.4v30h-463.4z"/>
		<path id="Layer" class="s2" d="m97 65.5v30"/>
		<path id="Layer" class="s2" d="m540.4 65.5v30"/>
		<text id="_createListItemHTML(id, title, body, isCompleted, ..." style="transform: matrix(1,0,0,1,112,85.5)" >
			<tspan x="0" y="0" class="t1">_createListItemHTML(id, title, body, isCompleted, ...
</tspan>
		</text>
	</g>
	<g id="Layer">
		<rect id="Layer" class="s3" x="124" y="114" width="232.8" height="30" rx="3"></rect>
		<text id="const MAX_BODY_LENGTH = 60" style="transform: matrix(1,0,0,1,139,134)" >
			<tspan x="0" y="0" class="t1">const MAX_BODY_LENGTH = 60
</tspan>
		</text>
	</g>
	<g id="Layer">
		<rect id="Layer" class="s3" x="124" y="162.5" width="170.4" height="30" rx="3"></rect>
		<text id="const completed = " style="transform: matrix(1,0,0,1,139,182.5)" >
			<tspan x="0" y="0" class="t1">const completed = 
</tspan>
		</text>
	</g>
	<g id="Layer">
		<rect id="Layer" class="s4" x="191" y="226" width="161.4" height="30" rx="3"></rect>
		<path id="Layer" class="s4" d="m161 241l30-30 30 30-30 30z"/>
		<text id="(isCompleted)" style="transform: matrix(1,0,0,1,236,246)" >
			<tspan x="0" y="0" class="t1">(isCompleted)
</tspan>
		</text>
		<text id="?" style="transform: matrix(1,0,0,1,187.1,246)" >
			<tspan x="0" y="0" class="t1">?
</tspan>
		</text>
		<text id="+" style="transform: matrix(1,0,0,1,198.8,272.95)" >
			<tspan x="0" y="0" class="t1">+
</tspan>
		</text>
		<text id="-" style="transform: matrix(1,0,0,1,356.3,239.05)" >
			<tspan x="0" y="0" class="t1">-
</tspan>
		</text>
	</g>
	<g id="Layer">
		<rect id="Layer" class="s3" x="211" y="281" width="248.4" height="30" rx="3"></rect>
		<text id="&quot;notes_list-item--completed&quot;" style="transform: matrix(1,0,0,1,226,301)" >
			<tspan x="0" y="0" class="t1">&quot;notes_list-item--completed&quot;
</tspan>
		</text>
	</g>
	<g id="Layer">
		<rect id="Layer" class="s3" x="519.4" y="281" width="45.6" height="30" rx="3"></rect>
		<text id="&quot;&quot;" style="transform: matrix(1,0,0,1,534.4,301)" >
			<tspan x="0" y="0" class="t1">&quot;&quot;
</tspan>
		</text>
	</g>
	<g id="Layer">
		<rect id="Layer" class="s3" x="124" y="331" width="162.6" height="30" rx="3"></rect>
		<text id="const archived = " style="transform: matrix(1,0,0,1,139,351)" >
			<tspan x="0" y="0" class="t1">const archived = 
</tspan>
		</text>
	</g>
	<g id="Layer">
		<rect id="Layer" class="s4" x="191" y="394.5" width="153.6" height="30" rx="3"></rect>
		<path id="Layer" class="s4" d="m161 409.5l30-30 30 30-30 30z"/>
		<text id="(isArchived)" style="transform: matrix(1,0,0,1,236,414.5)" >
			<tspan x="0" y="0" class="t1">(isArchived)
</tspan>
		</text>
		<text id="?" style="transform: matrix(1,0,0,1,187.1,414.5)" >
			<tspan x="0" y="0" class="t1">?
</tspan>
		</text>
		<text id="+" style="transform: matrix(1,0,0,1,198.8,441.45)" >
			<tspan x="0" y="0" class="t1">+
</tspan>
		</text>
		<text id="-" style="transform: matrix(1,0,0,1,348.5,407.55)" >
			<tspan x="0" y="0" class="t1">-
</tspan>
		</text>
	</g>
	<g id="Layer">
		<rect id="Layer" class="s3" x="211" y="449.5" width="240.6" height="30" rx="3"></rect>
		<text id="&quot;notes_list-item--archived&quot;" style="transform: matrix(1,0,0,1,226,469.5)" >
			<tspan x="0" y="0" class="t1">&quot;notes_list-item--archived&quot;
</tspan>
		</text>
	</g>
	<g id="Layer">
		<rect id="Layer" class="s3" x="511.6" y="449.5" width="45.6" height="30" rx="3"></rect>
		<text id="&quot;&quot;" style="transform: matrix(1,0,0,1,526.6,469.5)" >
			<tspan x="0" y="0" class="t1">&quot;&quot;
</tspan>
		</text>
	</g>
	<g id="Layer">
		<rect id="Layer" class="s3" x="124" y="499.5" width="435.6" height="30" rx="3"></rect>
		<path id="Layer" class="s2" d="m559.6 509.5h5"/>
		<path id="Layer" class="s2" d="m559.6 519.5h5"/>
		<path id="Layer" class="s2" d="m564.6 503.5l16 11-16 11z"/>
		<text id="return ` &lt;div class=&quot;notes_list-" style="transform: matrix(1,0,0,1,139,519.5)" >
			<tspan x="0" y="0" class="t1">return `</tspan><tspan  y="0" class="t1"> </tspan><tspan  y="0" class="t1">&lt;div class=&quot;notes_list-item ${complet...
</tspan>
		</text>
	</g>
	<g id="Layer">
		<rect id="Layer" class="s5" x="161" y="548" width="295.2" height="30" rx="2"></rect>
		<text id="body.substring(0, MAX_BODY_LENGTH)" style="transform: matrix(1,0,0,1,176,568)" >
			<tspan x="0" y="0" class="t1">body.substring(0, MAX_BODY_LENGTH)
</tspan>
		</text>
	</g>
	<g id="Layer">
		<rect id="Layer" class="s4" x="191" y="611.5" width="301.8" height="30" rx="3"></rect>
		<path id="Layer" class="s4" d="m161 626.5l30-30 30 30-30 30z"/>
		<text id="(body.length &gt; MAX_BODY_LENGTH)" style="transform: matrix(1,0,0,1,236,631.5)" >
			<tspan x="0" y="0" class="t1">(body.length &gt; MAX_BODY_LENGTH)
</tspan>
		</text>
		<text id="?" style="transform: matrix(1,0,0,1,187.1,631.5)" >
			<tspan x="0" y="0" class="t1">?
</tspan>
		</text>
		<text id="+" style="transform: matrix(1,0,0,1,198.8,658.45)" >
			<tspan x="0" y="0" class="t1">+
</tspan>
		</text>
		<text id="-" style="transform: matrix(1,0,0,1,496.7,624.55)" >
			<tspan x="0" y="0" class="t1">-
</tspan>
		</text>
	</g>
	<g id="Layer">
		<rect id="Layer" class="s3" x="211" y="666.5" width="69" height="30" rx="3"></rect>
		<text id="&quot;...&quot;" style="transform: matrix(1,0,0,1,226,686.5)" >
			<tspan x="0" y="0" class="t1">&quot;...&quot;
</tspan>
		</text>
	</g>
	<g id="Layer">
		<rect id="Layer" class="s3" x="552.8" y="666.5" width="45.6" height="30" rx="3"></rect>
		<text id="&quot;&quot;" style="transform: matrix(1,0,0,1,567.8,686.5)" >
			<tspan x="0" y="0" class="t1">&quot;&quot;
</tspan>
		</text>
	</g>
	<g id="Layer">
		<rect id="Layer" class="s5" x="161" y="716.5" width="326.4" height="30" rx="2"></rect>
		<text id="updated.toLocaleString(undefined, {*})" style="transform: matrix(1,0,0,1,176,736.5)" >
			<tspan x="0" y="0" class="t1">updated.toLocaleString(undefined, {*})
</tspan>
		</text>
	</g>
	<g id="Layer">
		<rect id="Layer" class="s3" x="198" y="765" width="53.4" height="30" rx="3"></rect>
		<text id="{*}" style="transform: matrix(1,0,0,1,213,785)" >
			<tspan x="0" y="0" class="t1">{*}
</tspan>
		</text>
	</g>
	<g id="Layer">
		<rect id="Layer" class="s3" x="235" y="813.5" width="162.6" height="30" rx="2"></rect>
		<text id="dateStyle: &quot;full&quot;" style="transform: matrix(1,0,0,1,250,833.5)" >
			<tspan x="0" y="0" class="t1">dateStyle: &quot;full&quot;
</tspan>
		</text>
	</g>
	<g id="Layer">
		<rect id="Layer" class="s3" x="235" y="862" width="170.4" height="30" rx="2"></rect>
		<text id="timeStyle: &quot;short&quot;" style="transform: matrix(1,0,0,1,250,882)" >
			<tspan x="0" y="0" class="t1">timeStyle: &quot;short&quot;
</tspan>
		</text>
	</g>
	<g id="Layer">
		<path id="Layer" class="s2" d="m87 925.5h213.8v30h-213.8z"/>
		<path id="Layer" class="s2" d="m97 925.5v30"/>
		<path id="Layer" class="s2" d="m290.8 925.5v30"/>
		<text id="updateNoteList(notes)" style="transform: matrix(1,0,0,1,112,945.5)" >
			<tspan x="0" y="0" class="t1">updateNoteList(notes)
</tspan>
		</text>
	</g>
	<g id="Layer">
		<rect id="Layer" class="s3" x="124" y="974" width="443.4" height="30" rx="3"></rect>
		<text id="const notesListContainer = this.root.querySelector..." style="transform: matrix(1,0,0,1,139,994)" >
			<tspan x="0" y="0" class="t1">const notesListContainer = this.root.querySelector...
</tspan>
		</text>
	</g>
	<g id="Layer">
		<rect id="Layer" class="s3" x="124" y="1022.5" width="287.4" height="30" rx="3"></rect>
		<text id="notesListContainer.innerHTML = &quot;&quot;" style="transform: matrix(1,0,0,1,139,1042.5)" >
			<tspan x="0" y="0" class="t1">notesListContainer.innerHTML = &quot;&quot;
</tspan>
		</text>
	</g>
	<g id="Layer">
		<rect id="Layer" class="s6" x="154" y="1106" width="169.2" height="30" rx="3"></rect>
		<path id="Layer" class="s6" d="m124 1121l30-30 30 30-30 30z"/>
		<text id=" note of notes" style="transform: matrix(1,0,0,1,199,1126)" >
			<tspan x="0" y="0" class="t1"> note of notes
</tspan>
		</text>
		<text id="for" style="transform: matrix(1,0,0,1,142.3,1126)" >
			<tspan x="0" y="0" class="t1">for
</tspan>
		</text>
	</g>
	<g id="Layer">
		<rect id="Layer" class="s3" x="174" y="1161" width="443.4" height="30" rx="3"></rect>
		<text id="const html = this._createListItemHTML(note.id, not..." style="transform: matrix(1,0,0,1,189,1181)" >
			<tspan x="0" y="0" class="t1">const html = this._createListItemHTML(note.id, not...
</tspan>
		</text>
	</g>
	<g id="Layer">
		<rect id="Layer" class="s5" x="174" y="1209.5" width="443.4" height="30" rx="2"></rect>
		<text id="notesListContainer.insertAdjacentHTML('beforeend',..." style="transform: matrix(1,0,0,1,189,1229.5)" >
			<tspan x="0" y="0" class="t1">notesListContainer.insertAdjacentHTML('beforeend',...
</tspan>
		</text>
	</g>
	<g id="Layer">
		<rect id="Layer" class="s5" x="124" y="1258" width="443.4" height="30" rx="2"></rect>
		<text id="notesListContainer.querySelectorAll('.notes_list-i..." style="transform: matrix(1,0,0,1,139,1278)" >
			<tspan x="0" y="0" class="t1">notesListContainer.querySelectorAll('.notes_list-i...
</tspan>
		</text>
	</g>
	<g id="Layer">
		<rect id="Layer" class="s5" x="124" y="1306.5" width="131.4" height="30" rx="2"></rect>
		<text id=".forEach(*())" style="transform: matrix(1,0,0,1,139,1326.5)" >
			<tspan x="0" y="0" class="t1">.forEach(*())
</tspan>
		</text>
		<circle id="Layer" class="s7" cx="130" cy="1330.5" r="4"/>
	</g>
	<g id="Layer">
		<path id="Layer" class="s2" d="m161 1355h182.6v30h-182.6z"/>
		<path id="Layer" class="s2" d="m171 1355v30"/>
		<path id="Layer" class="s2" d="m333.6 1355v30"/>
		<text id="(noteListItem) =&gt;" style="transform: matrix(1,0,0,1,186,1375)" >
			<tspan x="0" y="0" class="t1">(noteListItem) =&gt;
</tspan>
		</text>
	</g>
	<g id="Layer">
		<rect id="Layer" class="s5" x="198" y="1403.5" width="365.4" height="30" rx="2"></rect>
		<text id="noteListItem.addEventListener('click', *())" style="transform: matrix(1,0,0,1,213,1423.5)" >
			<tspan x="0" y="0" class="t1">noteListItem.addEventListener('click', *())
</tspan>
		</text>
	</g>
	<g id="Layer">
		<path id="Layer" class="s2" d="m235 1452h89v30h-89z"/>
		<path id="Layer" class="s2" d="m245 1452v30"/>
		<path id="Layer" class="s2" d="m314 1452v30"/>
		<text id="() =&gt;" style="transform: matrix(1,0,0,1,260,1472)" >
			<tspan x="0" y="0" class="t1">() =&gt;
</tspan>
		</text>
	</g>
	<g id="Layer">
		<rect id="Layer" class="s5" x="272" y="1500.5" width="388.8" height="30" rx="2"></rect>
		<text id="this.onNoteSelect(noteListItem.dataset.noteId)" style="transform: matrix(1,0,0,1,287,1520.5)" >
			<tspan x="0" y="0" class="t1">this.onNoteSelect(noteListItem.dataset.noteId)
</tspan>
		</text>
	</g>
	<g id="Layer">
		<path id="Layer" class="s2" d="m87 1564h221.6v30h-221.6z"/>
		<path id="Layer" class="s2" d="m97 1564v30"/>
		<path id="Layer" class="s2" d="m298.6 1564v30"/>
		<text id="updateActiveNote(note)" style="transform: matrix(1,0,0,1,112,1584)" >
			<tspan x="0" y="0" class="t1">updateActiveNote(note)
</tspan>
		</text>
	</g>
	<g id="Layer">
		<rect id="Layer" class="s3" x="124" y="1612.5" width="443.4" height="30" rx="3"></rect>
		<text id="this.root.querySelector(&quot;.notes_title&quot;).value = no..." style="transform: matrix(1,0,0,1,139,1632.5)" >
			<tspan x="0" y="0" class="t1">this.root.querySelector(&quot;.notes_title&quot;).value = no...
</tspan>
		</text>
	</g>
	<g id="Layer">
		<rect id="Layer" class="s5" x="161" y="1661" width="334.2" height="30" rx="2"></rect>
		<text id="this.root.querySelector('.notes_title')" style="transform: matrix(1,0,0,1,176,1681)" >
			<tspan x="0" y="0" class="t1">this.root.querySelector('.notes_title')
</tspan>
		</text>
	</g>
	<g id="Layer">
		<rect id="Layer" class="s3" x="124" y="1709.5" width="443.4" height="30" rx="3"></rect>
		<text id="this.root.querySelector(&quot;.notes_body&quot;).value = not..." style="transform: matrix(1,0,0,1,139,1729.5)" >
			<tspan x="0" y="0" class="t1">this.root.querySelector(&quot;.notes_body&quot;).value = not...
</tspan>
		</text>
	</g>
	<g id="Layer">
		<rect id="Layer" class="s5" x="161" y="1758" width="326.4" height="30" rx="2"></rect>
		<text id="this.root.querySelector('.notes_body')" style="transform: matrix(1,0,0,1,176,1778)" >
			<tspan x="0" y="0" class="t1">this.root.querySelector('.notes_body')
</tspan>
		</text>
	</g>
	<g id="Layer">
		<rect id="Layer" class="s5" x="124" y="1806.5" width="388.8" height="30" rx="2"></rect>
		<text id="this.root.querySelectorAll('.notes_list-item')" style="transform: matrix(1,0,0,1,139,1826.5)" >
			<tspan x="0" y="0" class="t1">this.root.querySelectorAll('.notes_list-item')
</tspan>
		</text>
	</g>
	<g id="Layer">
		<rect id="Layer" class="s5" x="124" y="1855" width="131.4" height="30" rx="2"></rect>
		<text id=".forEach(*())" style="transform: matrix(1,0,0,1,139,1875)" >
			<tspan x="0" y="0" class="t1">.forEach(*())
</tspan>
		</text>
		<circle id="Layer" class="s7" cx="130" cy="1879" r="4"/>
	</g>
	<g id="Layer">
		<path id="Layer" class="s2" d="m161 1903.5h182.6v30h-182.6z"/>
		<path id="Layer" class="s2" d="m171 1903.5v30"/>
		<path id="Layer" class="s2" d="m333.6 1903.5v30"/>
		<text id="(noteListItem) =&gt;" style="transform: matrix(1,0,0,1,186,1923.5)" >
			<tspan x="0" y="0" class="t1">(noteListItem) =&gt;
</tspan>
		</text>
	</g>
	<g id="Layer">
		<rect id="Layer" class="s5" x="198" y="1952" width="443.4" height="30" rx="2"></rect>
		<text id="noteListItem.classList.remove('notes_list-item--se..." style="transform: matrix(1,0,0,1,213,1972)" >
			<tspan x="0" y="0" class="t1">noteListItem.classList.remove('notes_list-item--se...
</tspan>
		</text>
	</g>
	<g id="Layer">
		<rect id="Layer" class="s5" x="124" y="2000.5" width="443.4" height="30" rx="2"></rect>
		<text id="this.root.querySelector(`.notes_list-item[data-not..." style="transform: matrix(1,0,0,1,139,2020.5)" >
			<tspan x="0" y="0" class="t1">this.root.querySelector(`.notes_list-item[data-not...
</tspan>
		</text>
	</g>
	<g id="Layer">
		<rect id="Layer" class="s5" x="124" y="2049" width="443.4" height="30" rx="2"></rect>
		<text id="this.root.querySelector(`.notes_list-item[data-not..." style="transform: matrix(1,0,0,1,139,2069)" >
			<tspan x="0" y="0" class="t1">this.root.querySelector(`.notes_list-item[data-not...
</tspan>
		</text>
	</g>
	<g id="Layer">
		<rect id="Layer" class="s4" x="154" y="2112.5" width="200.4" height="30" rx="3"></rect>
		<path id="Layer" class="s4" d="m124 2127.5l30-30 30 30-30 30z"/>
		<text id="(note.isCompleted)" style="transform: matrix(1,0,0,1,199,2132.5)" >
			<tspan x="0" y="0" class="t1">(note.isCompleted)
</tspan>
		</text>
		<text id="if" style="transform: matrix(1,0,0,1,146.2,2132.5)" >
			<tspan x="0" y="0" class="t1">if
</tspan>
		</text>
		<text id="+" style="transform: matrix(1,0,0,1,161.8,2159.45)" >
			<tspan x="0" y="0" class="t1">+
</tspan>
		</text>
		<text id="-" style="transform: matrix(1,0,0,1,358.3,2125.55)" >
			<tspan x="0" y="0" class="t1">-
</tspan>
		</text>
	</g>
	<g id="Layer">
		<rect id="Layer" class="s5" x="174" y="2167.5" width="396.6" height="30" rx="2"></rect>
		<text id="this.root.querySelector('[note_completed] .bi')" style="transform: matrix(1,0,0,1,189,2187.5)" >
			<tspan x="0" y="0" class="t1">this.root.querySelector('[note_completed] .bi')
</tspan>
		</text>
	</g>
	<g id="Layer">
		<rect id="Layer" class="s5" x="174" y="2216" width="443.4" height="30" rx="2"></rect>
		<text id="this.root.querySelector(&quot;[note_completed] .bi&quot;).cl..." style="transform: matrix(1,0,0,1,189,2236)" >
			<tspan x="0" y="0" class="t1">this.root.querySelector(&quot;[note_completed] .bi&quot;).cl...
</tspan>
		</text>
	</g>
	<g id="Layer">
		<rect id="Layer" class="s5" x="174" y="2264.5" width="396.6" height="30" rx="2"></rect>
		<text id="this.root.querySelector('[note_completed] .bi')" style="transform: matrix(1,0,0,1,189,2284.5)" >
			<tspan x="0" y="0" class="t1">this.root.querySelector('[note_completed] .bi')
</tspan>
		</text>
	</g>
	<g id="Layer">
		<rect id="Layer" class="s5" x="174" y="2313" width="443.4" height="30" rx="2"></rect>
		<text id="this.root.querySelector(&quot;[note_completed] .bi&quot;).cl..." style="transform: matrix(1,0,0,1,189,2333)" >
			<tspan x="0" y="0" class="t1">this.root.querySelector(&quot;[note_completed] .bi&quot;).cl...
</tspan>
		</text>
	</g>
	<g id="Layer">
		<rect id="Layer" class="s5" x="677.4" y="2167.5" width="396.6" height="30" rx="2"></rect>
		<text id="this.root.querySelector('[note_completed] .bi')" style="transform: matrix(1,0,0,1,692.4,2187.5)" >
			<tspan x="0" y="0" class="t1">this.root.querySelector('[note_completed] .bi')
</tspan>
		</text>
	</g>
	<g id="Layer">
		<rect id="Layer" class="s5" x="677.4" y="2216" width="443.4" height="30" rx="2"></rect>
		<text id="this.root.querySelector(&quot;[note_completed] .bi&quot;).cl..." style="transform: matrix(1,0,0,1,692.4,2236)" >
			<tspan x="0" y="0" class="t1">this.root.querySelector(&quot;[note_completed] .bi&quot;).cl...
</tspan>
		</text>
	</g>
	<g id="Layer">
		<rect id="Layer" class="s5" x="677.4" y="2264.5" width="396.6" height="30" rx="2"></rect>
		<text id="this.root.querySelector('[note_completed] .bi')" style="transform: matrix(1,0,0,1,692.4,2284.5)" >
			<tspan x="0" y="0" class="t1">this.root.querySelector('[note_completed] .bi')
</tspan>
		</text>
	</g>
	<g id="Layer">
		<rect id="Layer" class="s5" x="677.4" y="2313" width="443.4" height="30" rx="2"></rect>
		<text id="this.root.querySelector(&quot;[note_completed] .bi&quot;).cl..." style="transform: matrix(1,0,0,1,692.4,2333)" >
			<tspan x="0" y="0" class="t1">this.root.querySelector(&quot;[note_completed] .bi&quot;).cl...
</tspan>
		</text>
	</g>
	<g id="Layer">
		<rect id="Layer" class="s4" x="154" y="2378" width="192.6" height="30" rx="3"></rect>
		<path id="Layer" class="s4" d="m124 2393l30-30 30 30-30 30z"/>
		<text id="(note.isArchived)" style="transform: matrix(1,0,0,1,199,2398)" >
			<tspan x="0" y="0" class="t1">(note.isArchived)
</tspan>
		</text>
		<text id="if" style="transform: matrix(1,0,0,1,146.2,2398)" >
			<tspan x="0" y="0" class="t1">if
</tspan>
		</text>
		<text id="+" style="transform: matrix(1,0,0,1,161.8,2424.95)" >
			<tspan x="0" y="0" class="t1">+
</tspan>
		</text>
		<text id="-" style="transform: matrix(1,0,0,1,350.5,2391.05)" >
			<tspan x="0" y="0" class="t1">-
</tspan>
		</text>
	</g>
	<g id="Layer">
		<rect id="Layer" class="s5" x="174" y="2433" width="388.8" height="30" rx="2"></rect>
		<text id="this.root.querySelector('[note_archived] .bi')" style="transform: matrix(1,0,0,1,189,2453)" >
			<tspan x="0" y="0" class="t1">this.root.querySelector('[note_archived] .bi')
</tspan>
		</text>
	</g>
	<g id="Layer">
		<rect id="Layer" class="s5" x="174" y="2481.5" width="443.4" height="30" rx="2"></rect>
		<text id="this.root.querySelector(&quot;[note_archived] .bi&quot;).cla..." style="transform: matrix(1,0,0,1,189,2501.5)" >
			<tspan x="0" y="0" class="t1">this.root.querySelector(&quot;[note_archived] .bi&quot;).cla...
</tspan>
		</text>
	</g>
	<g id="Layer">
		<rect id="Layer" class="s5" x="174" y="2530" width="388.8" height="30" rx="2"></rect>
		<text id="this.root.querySelector('[note_archived] .bi')" style="transform: matrix(1,0,0,1,189,2550)" >
			<tspan x="0" y="0" class="t1">this.root.querySelector('[note_archived] .bi')
</tspan>
		</text>
	</g>
	<g id="Layer">
		<rect id="Layer" class="s5" x="174" y="2578.5" width="443.4" height="30" rx="2"></rect>
		<text id="this.root.querySelector(&quot;[note_archived] .bi&quot;).cla..." style="transform: matrix(1,0,0,1,189,2598.5)" >
			<tspan x="0" y="0" class="t1">this.root.querySelector(&quot;[note_archived] .bi&quot;).cla...
</tspan>
		</text>
	</g>
	<g id="Layer">
		<rect id="Layer" class="s5" x="677.4" y="2433" width="388.8" height="30" rx="2"></rect>
		<text id="this.root.querySelector('[note_archived] .bi')" style="transform: matrix(1,0,0,1,692.4,2453)" >
			<tspan x="0" y="0" class="t1">this.root.querySelector('[note_archived] .bi')
</tspan>
		</text>
	</g>
	<g id="Layer">
		<rect id="Layer" class="s5" x="677.4" y="2481.5" width="443.4" height="30" rx="2"></rect>
		<text id="this.root.querySelector(&quot;[note_archived] .bi&quot;).cla..." style="transform: matrix(1,0,0,1,692.4,2501.5)" >
			<tspan x="0" y="0" class="t1">this.root.querySelector(&quot;[note_archived] .bi&quot;).cla...
</tspan>
		</text>
	</g>
	<g id="Layer">
		<rect id="Layer" class="s5" x="677.4" y="2530" width="388.8" height="30" rx="2"></rect>
		<text id="this.root.querySelector('[note_archived] .bi')" style="transform: matrix(1,0,0,1,692.4,2550)" >
			<tspan x="0" y="0" class="t1">this.root.querySelector('[note_archived] .bi')
</tspan>
		</text>
	</g>
	<g id="Layer">
		<rect id="Layer" class="s5" x="677.4" y="2578.5" width="443.4" height="30" rx="2"></rect>
		<text id="this.root.querySelector(&quot;[note_archived] .bi&quot;).cla..." style="transform: matrix(1,0,0,1,692.4,2598.5)" >
			<tspan x="0" y="0" class="t1">this.root.querySelector(&quot;[note_archived] .bi&quot;).cla...
</tspan>
		</text>
	</g>
	<g id="Layer">
		<path id="Layer" class="s2" d="m87 2643.5h330.8v30h-330.8z"/>
		<path id="Layer" class="s2" d="m97 2643.5v30"/>
		<path id="Layer" class="s2" d="m407.8 2643.5v30"/>
		<text id="updateNotePreviewVisibility(visible)" style="transform: matrix(1,0,0,1,112,2663.5)" >
			<tspan x="0" y="0" class="t1">updateNotePreviewVisibility(visible)
</tspan>
		</text>
	</g>
	<g id="Layer">
		<rect id="Layer" class="s3" x="124" y="2692" width="443.4" height="30" rx="3"></rect>
		<text id="this.root.querySelector(&quot;.notes_preview&quot;).style.vi..." style="transform: matrix(1,0,0,1,139,2712)" >
			<tspan x="0" y="0" class="t1">this.root.querySelector(&quot;.notes_preview&quot;).style.vi...
</tspan>
		</text>
	</g>
	<g id="Layer">
		<rect id="Layer" class="s5" x="161" y="2740.5" width="349.8" height="30" rx="2"></rect>
		<text id="this.root.querySelector('.notes_preview')" style="transform: matrix(1,0,0,1,176,2760.5)" >
			<tspan x="0" y="0" class="t1">this.root.querySelector('.notes_preview')
</tspan>
		</text>
	</g>
	<g id="Layer">
		<rect id="Layer" class="s4" x="191" y="2804" width="130.2" height="30" rx="3"></rect>
		<path id="Layer" class="s4" d="m161 2819l30-30 30 30-30 30z"/>
		<text id="(visible)" style="transform: matrix(1,0,0,1,236,2824)" >
			<tspan x="0" y="0" class="t1">(visible)
</tspan>
		</text>
		<text id="?" style="transform: matrix(1,0,0,1,187.1,2824)" >
			<tspan x="0" y="0" class="t1">?
</tspan>
		</text>
		<text id="+" style="transform: matrix(1,0,0,1,198.8,2850.95)" >
			<tspan x="0" y="0" class="t1">+
</tspan>
		</text>
		<text id="-" style="transform: matrix(1,0,0,1,325.1,2817.05)" >
			<tspan x="0" y="0" class="t1">-
</tspan>
		</text>
	</g>
	<g id="Layer">
		<rect id="Layer" class="s3" x="211" y="2859" width="100.2" height="30" rx="3"></rect>
		<text id="&quot;visible&quot;" style="transform: matrix(1,0,0,1,226,2879)" >
			<tspan x="0" y="0" class="t1">&quot;visible&quot;
</tspan>
		</text>
	</g>
	<g id="Layer">
		<rect id="Layer" class="s3" x="381.2" y="2859" width="92.4" height="30" rx="3"></rect>
		<text id="&quot;hidden&quot;" style="transform: matrix(1,0,0,1,396.2,2879)" >
			<tspan x="0" y="0" class="t1">&quot;hidden&quot;
</tspan>
		</text>
	</g>
	<g id="Layer">
		<path id="Layer" class="s8" d="m79 80.5h-6.5q-4 0-4-4v-29.5"/>
		<path id="Layer" class="s9" d="m79 77.5l8 3-8 3z"/>
	</g>
	<g id="Layer">
		<path id="Layer" class="s8" d="m116 129h-6.5q-4 0-4-4v-29.5"/>
		<path id="Layer" class="s9" d="m116 126l8 3-8 3z"/>
	</g>
	<g id="Layer">
		<path id="Layer" class="s8" d="m116 177.5h-6.5q-4 0-4-4v-78"/>
		<path id="Layer" class="s9" d="m116 174.5l8 3-8 3z"/>
	</g>
	<g id="Layer">
		<path id="Layer" class="s8" d="m153 241h-6.5q-4 0-4-4v-44.5"/>
		<path id="Layer" class="s9" d="m153 238l8 3-8 3z"/>
	</g>
	<g id="Layer">
		<path id="Layer" class="s8" d="m203 296h-8q-4 0-4-4v-21"/>
		<path id="Layer" class="s9" d="m203 293l8 3-8 3z"/>
	</g>
	<g id="Layer">
		<path id="Layer" class="s8" d="m352.4 241h143q4 0 4 4v43q0 8 4 8h8"/>
		<path id="Layer" class="s9" d="m511.4 293l8 3-8 3z"/>
	</g>
	<g id="Layer">
		<path id="Layer" class="s8" d="m116 346h-6.5q-4 0-4-4v-246.5"/>
		<path id="Layer" class="s9" d="m116 343l8 3-8 3z"/>
	</g>
	<g id="Layer">
		<path id="Layer" class="s8" d="m153 409.5h-6.5q-4 0-4-4v-44.5"/>
		<path id="Layer" class="s9" d="m153 406.5l8 3-8 3z"/>
	</g>
	<g id="Layer">
		<path id="Layer" class="s8" d="m203 464.5h-8q-4 0-4-4v-21"/>
		<path id="Layer" class="s9" d="m203 461.5l8 3-8 3z"/>
	</g>
	<g id="Layer">
		<path id="Layer" class="s8" d="m344.6 409.5h143q4 0 4 4v43q0 8 4 8h8"/>
		<path id="Layer" class="s9" d="m503.6 461.5l8 3-8 3z"/>
	</g>
	<g id="Layer">
		<path id="Layer" class="s8" d="m116 514.5h-6.5q-4 0-4-4v-415"/>
		<path id="Layer" class="s9" d="m116 511.5l8 3-8 3z"/>
	</g>
	<g id="Layer">
		<path id="Layer" class="s8" d="m153 563h-6.5q-4 0-4-4v-29.5"/>
		<path id="Layer" class="s9" d="m153 560l8 3-8 3z"/>
	</g>
	<g id="Layer">
		<path id="Layer" class="s8" d="m153 626.5h-6.5q-4 0-4-4v-93"/>
		<path id="Layer" class="s9" d="m153 623.5l8 3-8 3z"/>
	</g>
	<g id="Layer">
		<path id="Layer" class="s8" d="m203 681.5h-8q-4 0-4-4v-21"/>
		<path id="Layer" class="s9" d="m203 678.5l8 3-8 3z"/>
	</g>
	<g id="Layer">
		<path id="Layer" class="s8" d="m492.8 626.5h36q4 0 4 4v43q0 8 4 8h8"/>
		<path id="Layer" class="s9" d="m544.8 678.5l8 3-8 3z"/>
	</g>
	<g id="Layer">
		<path id="Layer" class="s8" d="m153 731.5h-6.5q-4 0-4-4v-198"/>
		<path id="Layer" class="s9" d="m153 728.5l8 3-8 3z"/>
	</g>
	<g id="Layer">
		<path id="Layer" class="s8" d="m190 780h-6.5q-4 0-4-4v-29.5"/>
		<path id="Layer" class="s9" d="m190 777l8 3-8 3z"/>
	</g>
	<g id="Layer">
		<path id="Layer" class="s8" d="m235 828.5h-14.5q-4 0-4-4v-29.5"/>
	</g>
	<g id="Layer">
		<path id="Layer" class="s8" d="m235 877h-14.5q-4 0-4-4v-78"/>
	</g>
	<g id="Layer">
		<path id="Layer" class="s8" d="m79 940.5h-6.5q-4 0-4-4v-889.5"/>
		<path id="Layer" class="s9" d="m79 937.5l8 3-8 3z"/>
	</g>
	<g id="Layer">
		<path id="Layer" class="s8" d="m116 989h-6.5q-4 0-4-4v-29.5"/>
		<path id="Layer" class="s9" d="m116 986l8 3-8 3z"/>
	</g>
	<g id="Layer">
		<path id="Layer" class="s8" d="m116 1037.5h-6.5q-4 0-4-4v-78"/>
		<path id="Layer" class="s9" d="m116 1034.5l8 3-8 3z"/>
	</g>
	<g id="Layer">
		<path id="Layer" class="s8" d="m116 1121h-6.5q-4 0-4-4v-161.5"/>
		<path id="Layer" class="s9" d="m116 1118l8 3-8 3z"/>
	</g>
	<g id="Layer">
		<path id="Layer" class="s8" d="m166 1176h-8q-4 0-4-4v-21"/>
		<path id="Layer" class="s9" d="m166 1173l8 3-8 3z"/>
	</g>
	<g id="Layer">
		<path id="Layer" class="s8" d="m166 1224.5h-8q-4 0-4-4v-69.5"/>
		<path id="Layer" class="s9" d="m166 1221.5l8 3-8 3z"/>
	</g>
	<g id="Layer">
		<path id="Layer" class="s8" d="m154 1083v-8q0-4 8-4h471.4q4 0 4 8v141.5q0 4-4 4h-16"/>
		<path id="Layer" class="s9" d="m157 1083l-3 8-3-8z"/>
	</g>
	<g id="Layer">
		<path id="Layer" class="s8" d="m116 1273h-6.5q-4 0-4-4v-313.5"/>
		<path id="Layer" class="s9" d="m116 1270l8 3-8 3z"/>
	</g>
	<g id="Layer">
		<path id="Layer" class="s8" d="m116 1321.5h-6.5q-4 0-4-4v-362"/>
		<path id="Layer" class="s9" d="m116 1318.5l8 3-8 3z"/>
	</g>
	<g id="Layer">
		<path id="Layer" class="s8" d="m161 1370h-14.5q-4 0-4-4v-29.5"/>
	</g>
	<g id="Layer">
		<path id="Layer" class="s8" d="m190 1418.5h-6.5q-4 0-4-4v-29.5"/>
		<path id="Layer" class="s9" d="m190 1415.5l8 3-8 3z"/>
	</g>
	<g id="Layer">
		<path id="Layer" class="s8" d="m235 1467h-14.5q-4 0-4-4v-29.5"/>
	</g>
	<g id="Layer">
		<path id="Layer" class="s8" d="m264 1515.5h-6.5q-4 0-4-4v-29.5"/>
		<path id="Layer" class="s9" d="m264 1512.5l8 3-8 3z"/>
	</g>
	<g id="Layer">
		<path id="Layer" class="s8" d="m79 1579h-6.5q-4 0-4-4v-1528"/>
		<path id="Layer" class="s9" d="m79 1576l8 3-8 3z"/>
	</g>
	<g id="Layer">
		<path id="Layer" class="s8" d="m116 1627.5h-6.5q-4 0-4-4v-29.5"/>
		<path id="Layer" class="s9" d="m116 1624.5l8 3-8 3z"/>
	</g>
	<g id="Layer">
		<path id="Layer" class="s8" d="m153 1676h-6.5q-4 0-4-4v-29.5"/>
		<path id="Layer" class="s9" d="m153 1673l8 3-8 3z"/>
	</g>
	<g id="Layer">
		<path id="Layer" class="s8" d="m116 1724.5h-6.5q-4 0-4-4v-126.5"/>
		<path id="Layer" class="s9" d="m116 1721.5l8 3-8 3z"/>
	</g>
	<g id="Layer">
		<path id="Layer" class="s8" d="m153 1773h-6.5q-4 0-4-4v-29.5"/>
		<path id="Layer" class="s9" d="m153 1770l8 3-8 3z"/>
	</g>
	<g id="Layer">
		<path id="Layer" class="s8" d="m116 1821.5h-6.5q-4 0-4-4v-223.5"/>
		<path id="Layer" class="s9" d="m116 1818.5l8 3-8 3z"/>
	</g>
	<g id="Layer">
		<path id="Layer" class="s8" d="m116 1870h-6.5q-4 0-4-4v-272"/>
		<path id="Layer" class="s9" d="m116 1867l8 3-8 3z"/>
	</g>
	<g id="Layer">
		<path id="Layer" class="s8" d="m161 1918.5h-14.5q-4 0-4-4v-29.5"/>
	</g>
	<g id="Layer">
		<path id="Layer" class="s8" d="m190 1967h-6.5q-4 0-4-4v-29.5"/>
		<path id="Layer" class="s9" d="m190 1964l8 3-8 3z"/>
	</g>
	<g id="Layer">
		<path id="Layer" class="s8" d="m116 2015.5h-6.5q-4 0-4-4v-417.5"/>
		<path id="Layer" class="s9" d="m116 2012.5l8 3-8 3z"/>
	</g>
	<g id="Layer">
		<path id="Layer" class="s8" d="m116 2064h-6.5q-4 0-4-4v-466"/>
		<path id="Layer" class="s9" d="m116 2061l8 3-8 3z"/>
	</g>
	<g id="Layer">
		<path id="Layer" class="s8" d="m116 2127.5h-6.5q-4 0-4-4v-529.5"/>
		<path id="Layer" class="s9" d="m116 2124.5l8 3-8 3z"/>
	</g>
	<g id="Layer">
		<path id="Layer" class="s8" d="m166 2182.5h-8q-4 0-4-4v-21"/>
		<path id="Layer" class="s9" d="m166 2179.5l8 3-8 3z"/>
	</g>
	<g id="Layer">
		<path id="Layer" class="s8" d="m166 2231h-8q-4 0-4-4v-69.5"/>
		<path id="Layer" class="s9" d="m166 2228l8 3-8 3z"/>
	</g>
	<g id="Layer">
		<path id="Layer" class="s8" d="m166 2279.5h-8q-4 0-4-4v-118"/>
		<path id="Layer" class="s9" d="m166 2276.5l8 3-8 3z"/>
	</g>
	<g id="Layer">
		<path id="Layer" class="s8" d="m166 2328h-8q-4 0-4-4v-166.5"/>
		<path id="Layer" class="s9" d="m166 2325l8 3-8 3z"/>
	</g>
	<g id="Layer">
		<path id="Layer" class="s8" d="m354.4 2127.5h299q4 0 4 4v43q0 8 4 8h8"/>
		<path id="Layer" class="s9" d="m669.4 2179.5l8 3-8 3z"/>
	</g>
	<g id="Layer">
		<path id="Layer" class="s8" d="m354.4 2127.5h299q4 0 4 4v91.5q0 8 4 8h8"/>
		<path id="Layer" class="s9" d="m669.4 2228l8 3-8 3z"/>
	</g>
	<g id="Layer">
		<path id="Layer" class="s8" d="m354.4 2127.5h299q4 0 4 4v140q0 8 4 8h8"/>
		<path id="Layer" class="s9" d="m669.4 2276.5l8 3-8 3z"/>
	</g>
	<g id="Layer">
		<path id="Layer" class="s8" d="m354.4 2127.5h299q4 0 4 4v188.5q0 8 4 8h8"/>
		<path id="Layer" class="s9" d="m669.4 2325l8 3-8 3z"/>
	</g>
	<g id="Layer">
		<path id="Layer" class="s8" d="m116 2393h-6.5q-4 0-4-4v-795"/>
		<path id="Layer" class="s9" d="m116 2390l8 3-8 3z"/>
	</g>
	<g id="Layer">
		<path id="Layer" class="s8" d="m166 2448h-8q-4 0-4-4v-21"/>
		<path id="Layer" class="s9" d="m166 2445l8 3-8 3z"/>
	</g>
	<g id="Layer">
		<path id="Layer" class="s8" d="m166 2496.5h-8q-4 0-4-4v-69.5"/>
		<path id="Layer" class="s9" d="m166 2493.5l8 3-8 3z"/>
	</g>
	<g id="Layer">
		<path id="Layer" class="s8" d="m166 2545h-8q-4 0-4-4v-118"/>
		<path id="Layer" class="s9" d="m166 2542l8 3-8 3z"/>
	</g>
	<g id="Layer">
		<path id="Layer" class="s8" d="m166 2593.5h-8q-4 0-4-4v-166.5"/>
		<path id="Layer" class="s9" d="m166 2590.5l8 3-8 3z"/>
	</g>
	<g id="Layer">
		<path id="Layer" class="s8" d="m346.6 2393h306.8q4 0 4 4v43q0 8 4 8h8"/>
		<path id="Layer" class="s9" d="m669.4 2445l8 3-8 3z"/>
	</g>
	<g id="Layer">
		<path id="Layer" class="s8" d="m346.6 2393h306.8q4 0 4 4v91.5q0 8 4 8h8"/>
		<path id="Layer" class="s9" d="m669.4 2493.5l8 3-8 3z"/>
	</g>
	<g id="Layer">
		<path id="Layer" class="s8" d="m346.6 2393h306.8q4 0 4 4v140q0 8 4 8h8"/>
		<path id="Layer" class="s9" d="m669.4 2542l8 3-8 3z"/>
	</g>
	<g id="Layer">
		<path id="Layer" class="s8" d="m346.6 2393h306.8q4 0 4 4v188.5q0 8 4 8h8"/>
		<path id="Layer" class="s9" d="m669.4 2590.5l8 3-8 3z"/>
	</g>
	<g id="Layer">
		<path id="Layer" class="s8" d="m79 2658.5h-6.5q-4 0-4-4v-2607.5"/>
		<path id="Layer" class="s9" d="m79 2655.5l8 3-8 3z"/>
	</g>
	<g id="Layer">
		<path id="Layer" class="s8" d="m116 2707h-6.5q-4 0-4-4v-29.5"/>
		<path id="Layer" class="s9" d="m116 2704l8 3-8 3z"/>
	</g>
	<g id="Layer">
		<path id="Layer" class="s8" d="m153 2755.5h-6.5q-4 0-4-4v-29.5"/>
		<path id="Layer" class="s9" d="m153 2752.5l8 3-8 3z"/>
	</g>
	<g id="Layer">
		<path id="Layer" class="s8" d="m153 2819h-6.5q-4 0-4-4v-93"/>
		<path id="Layer" class="s9" d="m153 2816l8 3-8 3z"/>
	</g>
	<g id="Layer">
		<path id="Layer" class="s8" d="m203 2874h-8q-4 0-4-4v-21"/>
		<path id="Layer" class="s9" d="m203 2871l8 3-8 3z"/>
	</g>
	<g id="Layer">
		<path id="Layer" class="s8" d="m321.2 2819h36q4 0 4 4v43q0 8 4 8h8"/>
		<path id="Layer" class="s9" d="m373.2 2871l8 3-8 3z"/>
	</g>
</svg>